<?xml version="1.0" standalone="no"?>
<!DOCTYPE svg PUBLIC "-//W3C//DTD SVG 20010904//EN"
 "http://www.w3.org/TR/2001/REC-SVG-20010904/DTD/svg10.dtd">
<svg version="1.0" xmlns="http://www.w3.org/2000/svg"
 width="187.000000pt" height="187.000000pt" viewBox="0 0 187.000000 187.000000"
 preserveAspectRatio="xMidYMid meet">

<g transform="translate(0.000000,187.000000) scale(0.100000,-0.100000)"
fill="#000000" stroke="none">
<path d="M900 1340 c-18 -18 -20 -33 -20 -150 l0 -130 55 0 55 0 0 130 c0 117
-2 132 -20 150 -11 11 -27 20 -35 20 -8 0 -24 -9 -35 -20z"/>
<path d="M758 1203 l-58 -59 0 -215 0 -215 60 -59 60 -59 0 132 0 132 115 0
115 0 0 -132 0 -132 60 59 60 59 0 216 0 216 -60 59 -60 59 0 -132 0 -132
-115 0 -114 0 -3 130 -3 131 -57 -58z"/>
<path d="M562 1007 c-34 -34 -62 -69 -62 -78 0 -16 129 -149 131 -134 4 36 3
275 -1 275 -3 0 -34 -28 -68 -63z"/>
<path d="M1239 1000 c0 -41 -1 -105 -2 -143 -1 -37 0 -67 3 -67 13 0 130 127
130 141 0 8 -29 44 -65 79 l-65 64 -1 -74z"/>
<path d="M880 670 c0 -117 2 -132 20 -150 25 -25 45 -25 70 0 18 18 20 33 20
150 l0 130 -55 0 -55 0 0 -130z"/>
</g>
</svg>
